HIERARCHY
ROOT Hips
{
	OFFSET 0.000000 0.000000 0.000000
	CHANNELS 6 Xposition Yposition Zposition Xrotation Yrotation Zrotation
	JOINT LeftUpLeg_virtual
	{
		OFFSET 0.000000 0.000000 0.000000
		CHANNELS 3 Xrotation Yrotation Zrotation
		JOINT LeftUpLeg
		{
			OFFSET 13.026900 -6.336304 -1.092800
			CHANNELS 3 Xrotation Yrotation Zrotation
			JOINT LeftLeg
			{
				OFFSET 0.524474 -46.096886 9.782700
				CHANNELS 3 Xrotation Yrotation Zrotation
				JOINT LeftFoot
				{
					OFFSET -0.524474 -53.427422 -12.948200
					CHANNELS 3 Xrotation Yrotation Zrotation
					JOINT LeftToeBase
					{
						OFFSET 0.192200 -14.009700 16.364100
						CHANNELS 3 Xrotation Yrotation Zrotation
						JOINT LeftToe_End
						{
							OFFSET -1.784700 -0.561700 9.474800
							CHANNELS 3 Xrotation Yrotation Zrotation
							End Site
							{
								OFFSET 0 0 0
							}
						}
					}
				}
			}
		}
	}
	JOINT RightUpLeg_virtual
	{
		OFFSET 0.000000 0.000000 0.000000
		CHANNELS 3 Xrotation Yrotation Zrotation
		JOINT RightUpLeg
		{
			OFFSET -12.883000 -6.336304 -1.092800
			CHANNELS 3 Xrotation Yrotation Zrotation
			JOINT RightLeg
			{
				OFFSET -0.524587 -46.096825 9.782800
				CHANNELS 3 Xrotation Yrotation Zrotation
				JOINT RightFoot
				{
					OFFSET 0.524587 -53.427383 -12.948300
					CHANNELS 3 Xrotation Yrotation Zrotation
					JOINT RightToeBase
					{
						OFFSET -0.192200 -14.009700 16.364100
						CHANNELS 3 Xrotation Yrotation Zrotation
						JOINT RightToe_End
						{
							OFFSET 1.784700 -0.561700 9.474800
							CHANNELS 3 Xrotation Yrotation Zrotation
							End Site
							{
								OFFSET 0 0 0
							}
						}
					}
				}
			}
		}
	}
	JOINT Spine_virtual
	{
		OFFSET 0.000000 0.000000 0.000000
		CHANNELS 3 Xrotation Yrotation Zrotation
		JOINT Spine
		{
			OFFSET 0.072000 7.257294 -0.789700
			CHANNELS 3 Xrotation Yrotation Zrotation
			JOINT Spine1
			{
				OFFSET 0.000000 12.508769 -0.658067
				CHANNELS 3 Xrotation Yrotation Zrotation
				JOINT Spine1_split
				{
					OFFSET 0.000000 12.508769 -0.658067
					CHANNELS 3 Xrotation Yrotation Zrotation
					JOINT Spine2
					{
						OFFSET 0.000000 12.508769 -0.658067
						CHANNELS 3 Xrotation Yrotation Zrotation
						JOINT Neck_virtual
						{
							OFFSET 0.000000 0.000000 0.000000
							CHANNELS 3 Xrotation Yrotation Zrotation
							JOINT Neck
							{
								OFFSET 0.000000 14.033295 7.520400
								CHANNELS 3 Xrotation Yrotation Zrotation
								JOINT Head
								{
									OFFSET 0.000000 8.198502 5.703100
									CHANNELS 3 Xrotation Yrotation Zrotation
									JOINT HeadTop_End
									{
										OFFSET 0.000000 17.760803 13.332701
										CHANNELS 3 Xrotation Yrotation Zrotation
										End Site
										{
											OFFSET 0 0 0
										}
									}
								}
							}
						}
						JOINT LeftShoulder_virtual
						{
							OFFSET 0.000000 0.000000 0.000000
							CHANNELS 3 Xrotation Yrotation Zrotation
							JOINT LeftShoulder
							{
								OFFSET 6.292450 5.785301 -0.669000
								CHANNELS 3 Xrotation Yrotation Zrotation
								JOINT LeftShoulder_split
								{
									OFFSET 6.292450 5.785301 -0.669000
									CHANNELS 3 Xrotation Yrotation Zrotation
									JOINT LeftArm
									{
										OFFSET 13.907140 -6.093903 1.965100
										CHANNELS 3 Xrotation Yrotation Zrotation
										JOINT LeftForeArm
										{
											OFFSET 34.140198 0.000000 0.000000
											CHANNELS 3 Xrotation Yrotation Zrotation
											JOINT LeftHand
											{
												OFFSET 40.960209 0.000000 0.000000
												CHANNELS 3 Xrotation Yrotation Zrotation
												End Site
												{
													OFFSET 0 0 0
												}
											}
										}
									}
								}
							}
						}
						JOINT RightShoulder_virtual
						{
							OFFSET 0.000000 0.000000 0.000000
							CHANNELS 3 Xrotation Yrotation Zrotation
							JOINT RightShoulder
							{
								OFFSET -6.292450 5.785301 -0.669000
								CHANNELS 3 Xrotation Yrotation Zrotation
								JOINT RightShoulder_split
								{
									OFFSET -6.292450 5.785301 -0.669000
									CHANNELS 3 Xrotation Yrotation Zrotation
									JOINT RightArm
									{
										OFFSET -13.907140 -6.093903 1.965100
										CHANNELS 3 Xrotation Yrotation Zrotation
										JOINT RightForeArm
										{
											OFFSET -34.140198 0.000000 0.000000
											CHANNELS 3 Xrotation Yrotation Zrotation
											JOINT RightHand
											{
												OFFSET -40.960209 0.000000 0.000000
												CHANNELS 3 Xrotation Yrotation Zrotation
												End Site
												{
													OFFSET 0 0 0
												}
											}
										}
									}
								}
							}
						}
					}
				}
			}
		}
	}
}
MOTION
Frames: 9
Frame Time: 0.03333333
-7.819898 102.030869 17.982407 0.000000 0.000000 0.000000 -3.938221 -26.406290 -1.585066 -33.640833 -5.082567 5.194834 34.705001 -2.034279 3.569219 -5.807689 -7.308975 -4.537573 -1.125093 0.173805 1.175403 0.000000 0.000000 0.000000 -7.920881 -21.426011 -0.961754 -14.841837 -8.045375 1.927316 40.842199 4.564618 -3.248860 -18.111848 1.164604 -0.297174 -2.828044 1.278487 2.739380 0.000000 0.000000 0.000000 -5.978070 -38.968166 -2.074826 13.626787 8.332188 3.920103 -3.456987 18.971521 1.137462 -0.730206 5.223183 0.799855 0.000000 0.000000 0.000000 13.643573 21.578612 -5.018138 -2.484056 15.154195 3.495396 6.019067 49.606100 -4.739081 0.000000 0.000000 0.000000 12.818752 22.405189 -4.332445 7.429168 -9.602678 -4.786892 4.334801 -9.337196 -3.279346 -33.356431 4.420808 -54.882964 -83.031017 12.844635 -85.556391 0.000000 0.000000 0.000000 16.297975 22.113878 -5.727818 5.260446 20.679318 -9.388738 -11.265430 -1.256660 -10.251607 -0.025490 35.874903 50.045315 -123.402162 70.118189 114.169269 0.000000 0.000000 0.000000 
-9.190495 102.342567 16.811508 0.000000 0.000000 0.000000 -4.508367 -23.991535 -0.922446 -32.050004 -2.705356 5.678335 30.438622 -1.306173 3.303379 -6.444956 -7.566555 -6.004583 -0.730020 0.476403 1.327789 0.000000 0.000000 0.000000 -8.413602 -18.732337 -0.290958 -13.711343 -7.708861 1.290934 39.249781 3.846217 -2.091355 -17.958096 1.644145 -1.207580 -1.897039 1.501055 2.760598 0.000000 0.000000 0.000000 -7.194624 -35.832108 -1.874926 14.855281 8.082527 4.051514 -3.737356 19.184599 0.773934 -0.401608 4.803672 1.028882 0.000000 0.000000 0.000000 13.929914 21.488441 -5.352063 -4.799311 15.117997 3.104369 6.249729 48.799864 -4.930319 0.000000 0.000000 0.000000 12.504281 22.501251 -4.584490 7.553464 -9.211440 -4.747881 5.958154 -10.092555 -3.335400 -35.139442 5.509095 -54.790780 -84.459858 12.762654 -86.056169 0.000000 0.000000 0.000000 15.570255 21.901630 -6.044613 4.905427 21.075978 -8.691182 -11.683104 -1.031368 -10.664451 0.671713 36.692674 47.754278 -123.673621 69.138399 114.464880 0.000000 0.000000 0.000000 
-10.226559 102.752983 16.133041 0.000000 0.000000 0.000000 -5.059259 -21.600830 -0.464668 -30.809546 0.960645 6.970398 27.021635 -0.127059 2.983108 -6.826779 -7.298810 -7.318009 -0.587858 0.863441 1.437359 0.000000 0.000000 0.000000 -8.608041 -16.249940 0.274051 -12.813953 -7.208103 0.273174 38.110075 2.848328 -0.983863 -17.621010 1.677936 -2.085380 -0.961239 1.640045 2.636652 0.000000 0.000000 0.000000 -8.019925 -32.898692 -1.701861 16.015790 7.791487 4.015526 -4.072411 19.131483 0.441158 -0.204303 4.272074 1.116956 0.000000 0.000000 0.000000 13.985245 21.238980 -5.538533 -7.517685 15.010152 3.311639 6.907568 47.819401 -5.317943 0.000000 0.000000 0.000000 12.170352 22.300846 -4.829649 7.921302 -9.376652 -3.816809 7.427704 -10.455556 -3.706048 -36.539135 4.911979 -54.226108 -85.438727 12.669867 -85.357099 0.000000 0.000000 0.000000 14.647832 21.496842 -6.157125 4.423061 21.323612 -7.628939 -10.594352 -0.007338 -11.485602 1.426844 37.894654 45.154756 -124.663493 68.716839 115.490262 0.000000 0.000000 0.000000 
-10.642791 103.282700 15.932892 0.000000 0.000000 0.000000 -5.428447 -19.054867 -0.331822 -30.267242 5.205234 9.076154 25.608514 1.348605 2.666550 -6.827954 -6.689751 -8.425541 -1.006255 1.335604 1.500508 0.000000 0.000000 0.000000 -8.498491 -13.694258 0.619833 -12.154838 -6.698810 -0.722738 37.364451 1.586424 -0.064460 -17.248502 1.263412 -2.906190 -0.386649 1.680581 2.442710 0.000000 0.000000 0.000000 -8.168689 -29.923226 -1.526976 16.789718 7.581575 3.806042 -4.459744 18.906846 0.291211 -0.242360 3.704691 1.007317 0.000000 0.000000 0.000000 13.822410 20.945349 -5.488095 -10.117172 14.558393 4.216338 7.254055 46.560751 -5.652958 0.000000 0.000000 0.000000 11.577639 21.941986 -4.848243 8.431197 -10.005968 -2.054383 8.662752 -10.879236 -4.136335 -37.658146 3.433313 -53.185754 -86.320033 12.583873 -83.915731 0.000000 0.000000 0.000000 13.556566 21.029843 -5.938495 3.797723 21.270041 -6.422081 -8.405967 1.603517 -12.612276 2.316034 38.988496 42.111671 -128.039505 68.821710 118.773301 0.000000 0.000000 0.000000 
-10.583641 104.083046 16.081009 0.000000 0.000000 0.000000 -5.389728 -15.952843 -0.574008 -30.722184 9.258305 11.977815 26.821484 3.082803 2.233338 -6.689442 -5.961553 -9.383950 -1.668600 1.883637 1.474052 0.000000 0.000000 0.000000 -8.248676 -10.969830 0.626692 -11.996529 -6.352387 -1.585682 36.721836 0.250838 0.535777 -16.892415 0.576462 -3.357826 -0.607365 1.630411 2.229330 0.000000 0.000000 0.000000 -7.611697 -26.814512 -1.391191 16.863638 7.485125 3.453724 -4.934384 18.458188 0.424200 -0.484226 3.043343 0.651783 0.000000 0.000000 0.000000 13.456086 20.573898 -5.140437 -11.881520 13.721007 5.392222 6.887457 44.994759 -5.885258 0.000000 0.000000 0.000000 10.710804 21.467114 -4.517632 8.962336 -10.816008 0.262656 9.709899 -11.895620 -4.372868 -38.399146 2.263414 -51.758180 -87.932504 12.349999 -82.621738 0.000000 0.000000 0.000000 12.412458 20.512569 -5.295468 3.137034 20.675316 -5.399688 -6.116679 2.736562 -13.796264 2.797151 39.233358 39.100852 -135.214837 68.965602 125.624746 0.000000 0.000000 0.000000 
-10.244472 105.131897 16.276070 0.000000 0.000000 0.000000 -5.101614 -12.100695 -1.139160 -31.946516 12.520949 15.623790 30.434305 4.758240 1.625068 -6.297552 -5.291152 -10.681327 -2.260639 2.509014 1.365037 0.000000 0.000000 0.000000 -8.139678 -7.955649 0.348696 -12.488875 -6.376837 -2.338221 36.314111 -1.009277 0.788265 -16.603502 -0.208413 -3.259131 -1.479180 1.508122 2.063714 0.000000 0.000000 0.000000 -6.665685 -23.188736 -1.346192 16.019777 7.548679 3.029625 -5.364690 17.685938 0.822087 -1.061566 2.719081 0.395960 0.000000 0.000000 0.000000 12.987346 20.014741 -4.514644 -12.349501 12.850653 6.389876 5.769774 43.613531 -6.429842 0.000000 0.000000 0.000000 9.605627 20.807497 -3.816945 9.392383 -11.501375 2.686263 10.489503 -12.941262 -4.417196 -39.099998 2.408742 -50.214465 -90.499207 11.996464 -81.818119 0.000000 0.000000 0.000000 11.343036 19.830985 -4.311399 2.658836 19.593999 -5.012985 -4.508444 2.606929 -14.412413 2.630684 38.126669 36.709589 -145.508697 68.446384 135.345977 0.000000 0.000000 0.000000 
-9.940296 106.227928 15.965538 0.000000 0.000000 0.000000 -4.689010 -7.524902 -1.830898 -33.502532 14.838540 19.705936 35.421655 6.154241 0.732102 -5.644382 -4.724401 -12.654126 -2.691480 3.150425 1.326239 0.000000 0.000000 0.000000 -8.217162 -4.428096 -0.020687 -13.569727 -6.745819 -3.130617 36.279697 -2.182484 0.732958 -16.492001 -0.935345 -2.751347 -1.968594 1.349816 1.989983 0.000000 0.000000 0.000000 -5.489095 -19.012627 -1.367084 14.309475 7.766452 2.651373 -5.513378 16.477234 1.386082 -1.332602 2.487281 0.041381 0.000000 0.000000 0.000000 12.526915 19.039023 -3.690607 -11.568399 12.123419 6.720609 4.444616 42.634116 -7.708085 0.000000 0.000000 0.000000 8.529173 19.752873 -2.920669 9.715790 -11.908777 4.659577 11.076274 -13.418795 -4.242794 -39.727314 4.039616 -49.056109 -93.600632 11.570306 -81.364765 0.000000 0.000000 0.000000 10.462678 18.811722 -3.133804 2.377802 18.255094 -5.437111 -3.922229 1.495724 -14.265941 1.073795 35.679638 35.625905 -155.715841 66.974636 144.793863 0.000000 0.000000 0.000000 
-9.763510 107.270752 14.781261 0.000000 0.000000 0.000000 -4.179889 -2.317820 -2.259666 -34.919451 16.292054 23.842290 40.113076 7.463218 -0.467609 -4.576098 -4.233794 -15.183965 -2.827024 3.733217 1.422413 0.000000 0.000000 0.000000 -8.343411 -0.035557 -0.158472 -14.973930 -7.309754 -4.407989 36.580458 -3.190650 0.413516 -16.451498 -1.547094 -1.897990 -1.497715 1.177254 2.022160 0.000000 0.000000 0.000000 -4.395223 -14.572323 -1.280238 11.945308 8.030676 2.440447 -5.232729 14.693369 1.942976 -1.056746 2.495879 -0.225101 0.000000 0.000000 0.000000 12.089561 17.453695 -2.834658 -9.759109 11.750748 6.027188 3.400173 41.738326 -9.627082 0.000000 0.000000 0.000000 7.992615 18.135902 -2.154843 9.945106 -11.785362 5.680316 11.672078 -13.454112 -3.641303 -39.825375 6.204891 -48.931533 -96.155403 11.155688 -80.407979 0.000000 0.000000 0.000000 10.057133 17.330374 -2.052686 2.348102 16.973667 -6.772449 -3.778301 0.038442 -13.257395 -1.821572 32.194448 36.212761 -162.788611 65.286657 151.067091 0.000000 0.000000 0.000000 
-9.755082 108.171722 12.954189 0.000000 0.000000 0.000000 -3.960424 3.050894 -2.066788 -35.670291 17.102616 27.706246 42.964311 8.691698 -1.872754 -2.689781 -3.891246 -18.249591 -2.701943 4.210969 1.672197 0.000000 0.000000 0.000000 -8.404999 5.226612 0.233360 -16.326080 -7.817169 -6.393932 37.130121 -3.891291 -0.069369 -16.039516 -2.085446 -0.475098 -0.312352 0.990541 2.178401 0.000000 0.000000 0.000000 -3.815982 -10.108341 -1.019739 9.248824 8.198061 2.320753 -4.430219 12.452063 2.245089 -0.475632 2.952554 -0.195855 0.000000 0.000000 0.000000 11.843348 15.298225 -2.177495 -7.209632 11.652608 4.238907 3.078205 40.944529 -11.999176 0.000000 0.000000 0.000000 8.233249 16.016652 -1.750330 10.100570 -11.044781 5.690719 11.953887 -13.147650 -3.040549 -39.544463 7.308966 -50.081932 -97.145207 11.073001 -78.134775 0.000000 0.000000 0.000000 10.253033 15.346906 -1.353195 2.567074 15.954668 -8.908522 -3.819407 -1.064957 -11.476103 -5.092857 28.423434 37.902256 -166.000904 64.264847 153.578456 0.000000 0.000000 0.000000 
